{
  "accessors": [
    {
      "bufferView": 2,
      "componentType": 5126,
      "count": 1146,
      "max": [
        -2.0653719902038574,
        0.40394899249076843,
        2.367141008377075
      ],
      "min": [
        -2.308168888092041,
        -0.4039509892463684,
        2.2520101070404053
      ],
      "type": "VEC3"
    },
    {
      "bufferView": 2,
      "byteOffset": 13752,
      "componentType": 5126,
      "count": 1146,
      "max": [
        0.9993325471878052,
        1.0,
        0.9913146495819092
      ],
      "min": [
        -0.9993325471878052,
        -1.0,
        -0.9913146495819092
      ],
      "type": "VEC3"
    },
    {
      "bufferView": 1,
      "componentType": 5126,
      "count": 1146,
      "max": [
        0.8762410283088684,
        0.9999060034751892
      ],
      "min": [
        9.40000027185306e-05,
        9.40000027185306e-05
      ],
      "type": "VEC2"
    },
    {
      "bufferView": 0,
      "componentType": 5125,
      "count": 6570,
      "type": "SCALAR"
    },
    {
      "bufferView": 2,
      "byteOffset": 27504,
      "componentType": 5126,
      "count": 911,
      "max": [
        1.508376955986023,
        0.35946300625801086,
        2.49379301071167
      ],
      "min": [
        -2.499629020690918,
        -0.35946398973464966,
        0.7228559851646423
      ],
      "type": "VEC3"
    },
    {
      "bufferView": 2,
      "byteOffset": 38436,
      "componentType": 5126,
      "count": 911,
      "max": [
        0.998076319694519,
        0.9996318221092224,
        0.9916438460350037
      ],
      "min": [
        -0.9868735074996948,
        -0.9996318221092224,
        -0.9983856678009033
      ],
      "type": "VEC3"
    },
    {
      "bufferView": 1,
      "byteOffset": 9168,
      "componentType": 5126,
      "count": 911,
      "max": [
        0.9644209742546082,
        1.0
      ],
      "min": [
        0.20001600682735443,
        5.400000009103678e-05
      ],
      "type": "VEC2"
    },
    {
      "bufferView": 0,
      "byteOffset": 26280,
      "componentType": 5125,
      "count": 3648,
      "type": "SCALAR"
    },
    {
      "bufferView": 2,
      "byteOffset": 49368,
      "componentType": 5126,
      "count": 978,
      "max": [
        -2.0708200931549072,
        0.062153998762369156,
        2.3602209091186523
      ],
      "min": [
        -2.29809308052063,
        -0.0603719986975193,
        2.2602219581604004
      ],
      "type": "VEC3"
    },
    {
      "bufferView": 2,
      "byteOffset": 61104,
      "componentType": 5126,
      "count": 978,
      "max": [
        0.9798352718353271,
        0.7156006097793579,
        0.9998704195022583
      ],
      "min": [
        -0.9998213648796082,
        -0.7155053019523621,
        -0.9998270869255066
      ],
      "type": "VEC3"
    },
    {
      "bufferView": 1,
      "byteOffset": 16456,
      "componentType": 5126,
      "count": 978,
      "max": [
        1.0,
        0.75
      ],
      "min": [
        0.0,
        0.009999999776482582
      ],
      "type": "VEC2"
    },
    {
      "bufferView": 0,
      "byteOffset": 40872,
      "componentType": 5125,
      "count": 3384,
      "type": "SCALAR"
    },
    {
      "bufferView": 2,
      "byteOffset": 72840,
      "componentType": 5126,
      "count": 672,
      "max": [
        0.7409430146217346,
        0.06664799898862839,
        2.203623056411743
      ],
      "min": [
        -1.688735008239746,
        -0.0633540004491806,
        1.231721043586731
      ],
      "type": "VEC3"
    },
    {
      "bufferView": 2,
      "byteOffset": 80904,
      "componentType": 5126,
      "count": 672,
      "max": [
        0.9309725761413574,
        1.0,
        0.9309725761413574
      ],
      "min": [
        -0.9309725761413574,
        -1.0,
        -0.9309725761413574
      ],
      "type": "VEC3"
    },
    {
      "bufferView": 1,
      "byteOffset": 24280,
      "componentType": 5126,
      "count": 672,
      "max": [
        0.875,
        1.0
      ],
      "min": [
        0.125,
        0.0
      ],
      "type": "VEC2"
    },
    {
      "bufferView": 0,
      "byteOffset": 54408,
      "componentType": 5125,
      "count": 1008,
      "type": "SCALAR"
    },
    {
      "bufferView": 2,
      "byteOffset": 88968,
      "componentType": 5126,
      "count": 146,
      "max": [
        -1.8619699478149414,
        0.11146199703216553,
        2.276638984680176
      ],
      "min": [
        -1.902413010597229,
        -0.1125819981098175,
        2.1940770149230957
      ],
      "type": "VEC3"
    },
    {
      "bufferView": 2,
      "byteOffset": 90720,
      "componentType": 5126,
      "count": 146,
      "max": [
        0.9663199186325073,
        1.0,
        0.9660700559616089
      ],
      "min": [
        -0.9663217663764954,
        -1.0,
        -0.9660332798957825
      ],
      "type": "VEC3"
    },
    {
      "bufferView": 1,
      "byteOffset": 29656,
      "componentType": 5126,
      "count": 146,
      "max": [
        0.875,
        0.625
      ],
      "min": [
        0.125,
        0.125
      ],
      "type": "VEC2"
    },
    {
      "bufferView": 0,
      "byteOffset": 58440,
      "componentType": 5125,
      "count": 246,
      "type": "SCALAR"
    },
    {
      "bufferView": 2,
      "byteOffset": 92472,
      "componentType": 5126,
      "count": 6786,
      "max": [
        0.7387030124664307,
        0.0988679975271225,
        2.4412450790405273
      ],
      "min": [
        -2.2723140716552734,
        -0.10417100042104721,
        1.2377729415893555
      ],
      "type": "VEC3"
    },
    {
      "bufferView": 2,
      "byteOffset": 173904,
      "componentType": 5126,
      "count": 6786,
      "max": [
        0.9998829364776611,
        0.9957546591758728,
        0.9930732250213623
      ],
      "min": [
        -0.9818628430366516,
        -0.9961550235748291,
        -0.9278520941734314
      ],
      "type": "VEC3"
    },
    {
      "bufferView": 1,
      "byteOffset": 30824,
      "componentType": 5126,
      "count": 6786,
      "max": [
        1.0,
        1.0
      ],
      "min": [
        0.0,
        0.009999999776482582
      ],
      "type": "VEC2"
    },
    {
      "bufferView": 0,
      "byteOffset": 59424,
      "componentType": 5125,
      "count": 19440,
      "type": "SCALAR"
    }
  ],
  "asset": {
    "extras": {
      "author": "Adbel Hasyir (https://sketchfab.com/adbel7705)",
      "license": "CC-BY-4.0 (http://creativecommons.org/licenses/by/4.0/)",
      "source": "https://sketchfab.com/3d-models/sapek-guitar-cc6775ee72d14521bdee94337dd44a73",
      "title": "Sapek Guitar"
    },
    "generator": "Sketchfab-12.67.0",
    "version": "2.0"
  },
  "bufferViews": [
    {
      "buffer": 0,
      "byteLength": 137184,
      "name": "floatBufferViews",
      "target": 34963
    },
    {
      "buffer": 0,
      "byteLength": 85112,
      "byteOffset": 137184,
      "byteStride": 8,
      "name": "floatBufferViews",
      "target": 34962
    },
    {
      "buffer": 0,
      "byteLength": 255336,
      "byteOffset": 222296,
      "byteStride": 12,
      "name": "floatBufferViews",
      "target": 34962
    }
  ],
  "buffers": [
    {
      "byteLength": 477632,
      "uri": "scene.bin"
    }
  ],
  "images": [
    {
      "uri": "textures/Material.004_baseColor.png"
    },
    {
      "uri": "textures/Material.017_baseColor.png"
    },
    {
      "uri": "textures/Material.019_baseColor.png"
    },
    {
      "uri": "textures/Material.020_baseColor.png"
    },
    {
      "uri": "textures/Snares_baseColor.png"
    }
  ],
  "materials": [
    {
      "doubleSided": true,
      "name": "Material.004",
      "pbrMetallicRoughness": {
        "baseColorTexture": {
          "index": 0
        },
        "metallicFactor": 0.0,
        "roughnessFactor": 0.6
      }
    },
    {
      "doubleSided": true,
      "name": "Material.017",
      "pbrMetallicRoughness": {
        "baseColorTexture": {
          "index": 1
        },
        "metallicFactor": 0.0,
        "roughnessFactor": 0.6
      }
    },
    {
      "doubleSided": true,
      "name": "Material.019",
      "pbrMetallicRoughness": {
        "baseColorTexture": {
          "index": 2
        },
        "metallicFactor": 0.0,
        "roughnessFactor": 0.6
      }
    },
    {
      "doubleSided": true,
      "name": "Material.020",
      "pbrMetallicRoughness": {
        "baseColorTexture": {
          "index": 3
        },
        "metallicFactor": 0.0,
        "roughnessFactor": 0.6
      }
    },
    {
      "doubleSided": true,
      "name": "material",
      "pbrMetallicRoughness": {
        "baseColorTexture": {
          "index": 3
        },
        "metallicFactor": 0.0,
        "roughnessFactor": 0.6
      }
    },
    {
      "doubleSided": true,
      "name": "Snares",
      "pbrMetallicRoughness": {
        "baseColorTexture": {
          "index": 4
        },
        "metallicFactor": 0.0,
        "roughnessFactor": 0.6
      }
    }
  ],
  "meshes": [
    {
      "name": "Object_0",
      "primitives": [
        {
          "attributes": {
            "NORMAL": 1,
            "POSITION": 0,
            "TEXCOORD_0": 2
          },
          "indices": 3,
          "material": 1,
          "mode": 4
        }
      ]
    },
    {
      "name": "Object_1",
      "primitives": [
        {
          "attributes": {
            "NORMAL": 5,
            "POSITION": 4,
            "TEXCOORD_0": 6
          },
          "indices": 7,
          "material": 0,
          "mode": 4
        }
      ]
    },
    {
      "name": "Object_2",
      "primitives": [
        {
          "attributes": {
            "NORMAL": 9,
            "POSITION": 8,
            "TEXCOORD_0": 10
          },
          "indices": 11,
          "material": 2,
          "mode": 4
        }
      ]
    },
    {
      "name": "Object_3",
      "primitives": [
        {
          "attributes": {
            "NORMAL": 13,
            "POSITION": 12,
            "TEXCOORD_0": 14
          },
          "indices": 15,
          "material": 3,
          "mode": 4
        }
      ]
    },
    {
      "name": "Object_4",
      "primitives": [
        {
          "attributes": {
            "NORMAL": 17,
            "POSITION": 16,
            "TEXCOORD_0": 18
          },
          "indices": 19,
          "material": 4,
          "mode": 4
        }
      ]
    },
    {
      "name": "Object_5",
      "primitives": [
        {
          "attributes": {
            "NORMAL": 21,
            "POSITION": 20,
            "TEXCOORD_0": 22
          },
          "indices": 23,
          "material": 5,
          "mode": 4
        }
      ]
    }
  ],
  "nodes": [
    {
      "children": [
        1
      ],
      "matrix": [
        1.0,
        0.0,
        0.0,
        0.0,
        0.0,
        2.220446049250313e-16,
        -1.0,
        0.0,
        0.0,
        1.0,
        2.220446049250313e-16,
        0.0,
        0.0,
        0.0,
        0.0,
        1.0
      ],
      "name": "Sketchfab_model"
    },
    {
      "children": [
        2,
        3,
        4,
        5,
        6,
        7
      ],
      "name": "Sapek_Mesh.obj.cleaner.materialmerger.gles"
    },
    {
      "mesh": 0,
      "name": "Object_2"
    },
    {
      "mesh": 1,
      "name": "Object_3"
    },
    {
      "mesh": 2,
      "name": "Object_4"
    },
    {
      "mesh": 3,
      "name": "Object_5"
    },
    {
      "mesh": 4,
      "name": "Object_6"
    },
    {
      "mesh": 5,
      "name": "Object_7"
    }
  ],
  "samplers": [
    {
      "magFilter": 9729,
      "minFilter": 9987,
      "wrapS": 10497,
      "wrapT": 10497
    }
  ],
  "scene": 0,
  "scenes": [
    {
      "name": "Sketchfab_Scene",
      "nodes": [
        0
      ]
    }
  ],
  "textures": [
    {
      "sampler": 0,
      "source": 0
    },
    {
      "sampler": 0,
      "source": 1
    },
    {
      "sampler": 0,
      "source": 2
    },
    {
      "sampler": 0,
      "source": 3
    },
    {
      "sampler": 0,
      "source": 4
    }
  ]
}
